<svg xmlns="http://www.w3.org/2000/svg" viewBox="0 0 64 64">
  <defs>
    <linearGradient id="g1" x1="0%" y1="0%" x2="100%" y2="100%">
      <stop offset="0%" stop-color="#3B82F6"/>
      <stop offset="100%" stop-color="#6366F1"/>
    </linearGradient>
  </defs>
  <rect width="64" height="64" rx="16" fill="url(#g1)"/>
  <path d="M32 14c-9.9 0-18 8.1-18 18s8.1 18 18 18 18-8.1 18-18-8.1-18-18-18zm0 32c-7.7 0-14-6.3-14-14S24.3 18 32 18s14 6.3 14 14-6.3 14-14 14z" fill="rgba(255,255,255,0.3)"/>
  <path d="M36 28h-3v-3a1 1 0 00-2 0v3h-3a1 1 0 000 2h3v3a1 1 0 002 0v-3h3a1 1 0 000-2z" fill="#fff"/>
  <circle cx="32" cy="32" r="6" fill="none" stroke="#fff" stroke-width="2" opacity="0.5"/>
</svg>
